<mxfile host="65bd71144e">
    <diagram id="TOYeV-wu_KElzjo45E-n" name="Page-1">
        <mxGraphModel dx="690" dy="567" grid="1" gridSize="10" guides="1" tooltips="1" connect="1" arrows="1" fold="1" page="1" pageScale="1" pageWidth="827" pageHeight="1169" math="0" shadow="0">
            <root>
                <mxCell id="0"/>
                <mxCell id="1" parent="0"/>
                <mxCell id="xPdopZzf8DzRyOFe5nqk-1" value="" style="rounded=0;whiteSpace=wrap;html=1;" parent="1" vertex="1">
                    <mxGeometry x="80" y="40" width="680" height="1200" as="geometry"/>
                </mxCell>
                <mxCell id="xPdopZzf8DzRyOFe5nqk-2" value="" style="rounded=0;whiteSpace=wrap;html=1;" parent="1" vertex="1">
                    <mxGeometry x="140" y="220" width="130" height="320" as="geometry"/>
                </mxCell>
                <mxCell id="xPdopZzf8DzRyOFe5nqk-3" value="Lista de tareas" style="rounded=0;whiteSpace=wrap;html=1;" parent="1" vertex="1">
                    <mxGeometry x="300" y="220" width="140" height="320" as="geometry"/>
                </mxCell>
                <mxCell id="xPdopZzf8DzRyOFe5nqk-4" value="Lista de tareas" style="rounded=0;whiteSpace=wrap;html=1;" parent="1" vertex="1">
                    <mxGeometry x="470" y="220" width="130" height="320" as="geometry"/>
                </mxCell>
                <mxCell id="xPdopZzf8DzRyOFe5nqk-5" value="To do" style="text;html=1;strokeColor=none;fillColor=none;align=center;verticalAlign=middle;whiteSpace=wrap;rounded=0;" parent="1" vertex="1">
                    <mxGeometry x="175" y="190" width="60" height="30" as="geometry"/>
                </mxCell>
                <mxCell id="xPdopZzf8DzRyOFe5nqk-6" value="Doing" style="text;html=1;strokeColor=none;fillColor=none;align=center;verticalAlign=middle;whiteSpace=wrap;rounded=0;" parent="1" vertex="1">
                    <mxGeometry x="340" y="190" width="60" height="30" as="geometry"/>
                </mxCell>
                <mxCell id="xPdopZzf8DzRyOFe5nqk-7" value="Done" style="text;html=1;strokeColor=none;fillColor=none;align=center;verticalAlign=middle;whiteSpace=wrap;rounded=0;" parent="1" vertex="1">
                    <mxGeometry x="510" y="190" width="60" height="30" as="geometry"/>
                </mxCell>
                <mxCell id="xPdopZzf8DzRyOFe5nqk-8" value="" style="rounded=0;whiteSpace=wrap;html=1;" parent="1" vertex="1">
                    <mxGeometry x="140" y="70" width="420" height="110" as="geometry"/>
                </mxCell>
                <mxCell id="xPdopZzf8DzRyOFe5nqk-9" value="Descripcion de la tarea" style="text;html=1;strokeColor=none;fillColor=none;align=center;verticalAlign=middle;whiteSpace=wrap;rounded=0;" parent="1" vertex="1">
                    <mxGeometry x="295" y="110" width="110" height="30" as="geometry"/>
                </mxCell>
                <mxCell id="xPdopZzf8DzRyOFe5nqk-10" value="" style="rounded=0;whiteSpace=wrap;html=1;" parent="1" vertex="1">
                    <mxGeometry x="600" y="60" width="120" height="30" as="geometry"/>
                </mxCell>
                <mxCell id="xPdopZzf8DzRyOFe5nqk-11" value="AÃ±adir tarea" style="text;html=1;strokeColor=none;fillColor=none;align=center;verticalAlign=middle;whiteSpace=wrap;rounded=0;" parent="1" vertex="1">
                    <mxGeometry x="620" y="60" width="80" height="30" as="geometry"/>
                </mxCell>
                <mxCell id="xPdopZzf8DzRyOFe5nqk-12" value="" style="rounded=0;whiteSpace=wrap;html=1;" parent="1" vertex="1">
                    <mxGeometry x="600" y="100" width="120" height="30" as="geometry"/>
                </mxCell>
                <mxCell id="xPdopZzf8DzRyOFe5nqk-13" value="Estado&lt;br&gt;" style="text;html=1;strokeColor=none;fillColor=none;align=center;verticalAlign=middle;whiteSpace=wrap;rounded=0;" parent="1" vertex="1">
                    <mxGeometry x="630" y="105" width="60" height="20" as="geometry"/>
                </mxCell>
                <mxCell id="xPdopZzf8DzRyOFe5nqk-14" value="" style="rounded=0;whiteSpace=wrap;html=1;" parent="1" vertex="1">
                    <mxGeometry x="600" y="150" width="120" height="30" as="geometry"/>
                </mxCell>
                <mxCell id="xPdopZzf8DzRyOFe5nqk-15" value="Prioridad" style="text;html=1;strokeColor=none;fillColor=none;align=center;verticalAlign=middle;whiteSpace=wrap;rounded=0;" parent="1" vertex="1">
                    <mxGeometry x="630" y="150" width="60" height="30" as="geometry"/>
                </mxCell>
                <mxCell id="xPdopZzf8DzRyOFe5nqk-16" value="" style="rounded=0;whiteSpace=wrap;html=1;" parent="1" vertex="1">
                    <mxGeometry x="140" y="560" width="130" height="30" as="geometry"/>
                </mxCell>
                <mxCell id="xPdopZzf8DzRyOFe5nqk-17" value="Vaciar&lt;br&gt;" style="text;html=1;strokeColor=none;fillColor=none;align=center;verticalAlign=middle;whiteSpace=wrap;rounded=0;" parent="1" vertex="1">
                    <mxGeometry x="175" y="560" width="60" height="30" as="geometry"/>
                </mxCell>
                <mxCell id="xPdopZzf8DzRyOFe5nqk-18" value="" style="rounded=0;whiteSpace=wrap;html=1;" parent="1" vertex="1">
                    <mxGeometry x="300" y="560" width="140" height="30" as="geometry"/>
                </mxCell>
                <mxCell id="xPdopZzf8DzRyOFe5nqk-19" value="Vaciar" style="text;html=1;strokeColor=none;fillColor=none;align=center;verticalAlign=middle;whiteSpace=wrap;rounded=0;" parent="1" vertex="1">
                    <mxGeometry x="323" y="560" width="94" height="30" as="geometry"/>
                </mxCell>
                <mxCell id="xPdopZzf8DzRyOFe5nqk-20" value="" style="rounded=0;whiteSpace=wrap;html=1;" parent="1" vertex="1">
                    <mxGeometry x="480" y="560" width="120" height="30" as="geometry"/>
                </mxCell>
                <mxCell id="xPdopZzf8DzRyOFe5nqk-21" value="Vaciar" style="text;html=1;strokeColor=none;fillColor=none;align=center;verticalAlign=middle;whiteSpace=wrap;rounded=0;" parent="1" vertex="1">
                    <mxGeometry x="510" y="560" width="60" height="30" as="geometry"/>
                </mxCell>
                <mxCell id="xPdopZzf8DzRyOFe5nqk-22" value="" style="rounded=0;whiteSpace=wrap;html=1;" parent="1" vertex="1">
                    <mxGeometry x="145" y="240" width="120" height="60" as="geometry"/>
                </mxCell>
                <mxCell id="xPdopZzf8DzRyOFe5nqk-23" value="Tarea" style="text;html=1;strokeColor=none;fillColor=none;align=center;verticalAlign=middle;whiteSpace=wrap;rounded=0;" parent="1" vertex="1">
                    <mxGeometry x="150" y="240" width="60" height="30" as="geometry"/>
                </mxCell>
                <mxCell id="xPdopZzf8DzRyOFe5nqk-24" value="Cambiar estado" style="rounded=0;whiteSpace=wrap;html=1;" parent="1" vertex="1">
                    <mxGeometry x="160" y="270" width="90" height="20" as="geometry"/>
                </mxCell>
                <mxCell id="xPdopZzf8DzRyOFe5nqk-25" value="Todas las tareas" style="rounded=0;whiteSpace=wrap;html=1;" parent="1" vertex="1">
                    <mxGeometry x="140" y="620" width="590" height="220" as="geometry"/>
                </mxCell>
                <mxCell id="xPdopZzf8DzRyOFe5nqk-26" value="Lista de tareas" style="rounded=0;whiteSpace=wrap;html=1;" parent="1" vertex="1">
                    <mxGeometry x="620" y="220" width="120" height="320" as="geometry"/>
                </mxCell>
                <mxCell id="xPdopZzf8DzRyOFe5nqk-27" value="Delete" style="text;html=1;strokeColor=none;fillColor=none;align=center;verticalAlign=middle;whiteSpace=wrap;rounded=0;" parent="1" vertex="1">
                    <mxGeometry x="650" y="190" width="60" height="30" as="geometry"/>
                </mxCell>
                <mxCell id="xPdopZzf8DzRyOFe5nqk-29" value="Vaciar" style="rounded=0;whiteSpace=wrap;html=1;" parent="1" vertex="1">
                    <mxGeometry x="620" y="560" width="110" height="30" as="geometry"/>
                </mxCell>
                <mxCell id="xPdopZzf8DzRyOFe5nqk-30" value="" style="rounded=0;whiteSpace=wrap;html=1;" parent="1" vertex="1">
                    <mxGeometry x="270" y="220" width="10" height="320" as="geometry"/>
                </mxCell>
                <mxCell id="xPdopZzf8DzRyOFe5nqk-31" value="" style="rounded=0;whiteSpace=wrap;html=1;" parent="1" vertex="1">
                    <mxGeometry x="440" y="220" width="10" height="320" as="geometry"/>
                </mxCell>
                <mxCell id="xPdopZzf8DzRyOFe5nqk-32" value="" style="rounded=0;whiteSpace=wrap;html=1;" parent="1" vertex="1">
                    <mxGeometry x="590" y="220" width="10" height="320" as="geometry"/>
                </mxCell>
                <mxCell id="xPdopZzf8DzRyOFe5nqk-33" value="" style="rounded=0;whiteSpace=wrap;html=1;" parent="1" vertex="1">
                    <mxGeometry x="730" y="220" width="10" height="320" as="geometry"/>
                </mxCell>
                <mxCell id="xPdopZzf8DzRyOFe5nqk-34" value="" style="rounded=0;whiteSpace=wrap;html=1;" parent="1" vertex="1">
                    <mxGeometry x="710" y="620" width="20" height="220" as="geometry"/>
                </mxCell>
                <mxCell id="xPdopZzf8DzRyOFe5nqk-35" value="Nueva tarea" style="text;html=1;strokeColor=none;fillColor=none;align=center;verticalAlign=middle;whiteSpace=wrap;rounded=0;" parent="1" vertex="1">
                    <mxGeometry x="140" y="40" width="70" height="30" as="geometry"/>
                </mxCell>
            </root>
        </mxGraphModel>
    </diagram>
</mxfile>